Patient4_TMGait_0pt8_01_left_31_EMG.mot
version=1
nRows=30
nColumns=33
inDegrees=no
endheader
time	1LAddLong	2LGlutMax	3LGlutMed	4LIliopsoas	5LSemiMemb	6LBicFemLong	7LRecFem	8LVastMed	9LVastLat	10LGasMed	11LTibAnt	12lTibPost	13LPeroneusLong	14LSol	15LExtDigLong	16LFlexDigLong	17RAddLong	18RGlutMax	19RGlutMed	20RIliopsoas	21RSemiMemb	22RBicFemLong	23RRecFem	24RVastMed	25RVastLat	26RGasMed	27RTibAnt	28RTibPost	29RPeroneusLong	30RSol	31RExtDigLong	32RFlexDigLong
35.27	0.018463	0.28763	-0.017395	0.005493	0.029602	0.005341	-0.045929	-0.000763	0.1622	-0.058289	0.014038	0.004272	-0.014801	-0.066528	0.012207	0.005798	0.005646	-0.070648	0.85434	-0.041962	0.00061	-0.010376	-0.16861	0.086975	-0.084686	-0.006866	-0.34821	-0.015564	0.22888	0.043488	-0.002289	-0.009766
35.271	0.027161	0.29404	-0.011292	0.009308	0.048218	0.021362	-0.044098	0.018005	0.1535	-0.055237	0.024414	-0.000305	0.005035	-0.053711	0.007477	0.004425	-0.010376	-0.043945	0.43228	-0.054932	-0.03952	-0.012512	-0.20737	0.035858	0.065918	-0.000763	-0.3096	-0.011139	-0.12512	0.075989	-0.000763	-0.00824
35.272	0.010529	0.29984	0.010376	0.00061	0.008087	0.019531	-0.036926	0.010071	0.20874	-0.044098	0.016327	-0.000458	0.021515	-0.067596	0.014801	0.002899	-0.014954	-0.12528	0.26871	-0.16373	0	-0.02594	-0.13992	0.063324	0.16815	-0.007782	-0.079803	-0.008545	-0.075531	0.081329	-0.004272	-0.006104
35.273	0.006104	0.29251	0.005188	0.006866	0.015717	0.013733	-0.033569	0.00412	0.20554	-0.029297	0.012054	-0.000458	0.038605	-0.076599	0.022736	0.007324	0.005951	-0.16556	0.47028	-0.25467	0.015259	-0.045624	-0.060577	0.10147	0.16327	-0.012054	-0.036926	-0.013885	0.049744	0.063019	-0.005951	-0.00824
35.274	0.011749	0.26718	0.012817	0.006866	0.00351	0.037231	-0.046387	0.006256	0.14374	-0.019989	0.005493	0.005188	0.023651	-0.079498	0.002289	0.011749	0.008087	-0.14236	0.81894	-0.24704	0.001526	-0.038757	0.064545	0.031128	0.019989	-0.009766	-0.32562	-0.007935	-0.014496	0.074463	-0.002899	-0.003052
35.275	0.016327	0.29495	0.06897	0.011902	-0.015411	0.050507	-0.054932	0.009003	0.081635	-0.014496	0.002136	0.002441	0.006256	-0.075073	-0.001831	0.010223	0.010376	-0.18143	0.34149	-0.064545	-0.018005	-0.045929	0.15335	-0.048828	-0.057068	-0.010834	-0.2684	-0.007172	-0.13626	0.040741	-0.000916	-0.009155
35.276	0.021515	0.2713	0.021667	0.013733	-0.006409	0.056	-0.052795	-0.00351	0.076599	-0.036011	0.032806	0.002899	0.020142	-0.10574	-0.005798	0.002594	0.016327	-0.2269	-0.002289	0.24979	-0.02533	-0.043488	0.27405	0.000916	-0.12878	-0.017395	-0.30563	-0.002289	-0.112	-0.016632	-0.004272	-0.002136
35.277	0.025482	0.26916	0.024719	0.011902	0.031433	0.029755	-0.043793	0.003204	0.11444	-0.03418	-0.001068	0.000458	0.03006	-0.097198	-0.01709	0.007019	0.016479	-0.18127	-0.062714	0.36438	-0.020447	-0.027313	0.23666	-0.006104	-0.092163	-0.011597	-0.33508	-0.002747	-0.059662	-0.047607	-0.000916	-0.010223
35.278	0.018463	0.23102	0.016937	-0.002899	0.049286	0.013123	-0.04837	-0.001678	0.15869	-0.034027	-0.061646	-0.001373	0.045624	-0.018005	-0.010223	0.014954	0.00061	-0.31632	-0.063019	0.28244	0.021057	-0.016174	-0.00351	-0.1355	-0.053406	-0.015717	-0.11398	-0.001068	-0.005493	-0.073547	-0.001526	-0.003967
35.279	0.016632	0.23514	-0.039825	0.001526	0.009613	0.063171	-0.050201	0.006256	0.15396	-0.012054	-0.070648	-0.001831	0.033417	0.019684	-0.026093	0.017853	0.006866	-0.32608	-0.098572	0.17425	0.052795	-0.000305	-0.14603	-0.1886	0.041351	-0.007324	0.47943	-0.001678	0.042572	-0.1619	-0.001984	-0.009918
35.28	-0.005035	0.18524	-0.04837	0.006714	-0.06485	0.12146	-0.047302	0.007935	0.14358	-0.016479	-0.096588	-0.00412	0.017548	-0.044098	-0.028534	-0.003052	-0.007324	-0.31784	0.068359	-0.067749	-0.011902	0.030518	-0.095673	-0.050507	0.083466	-0.002594	0.36835	0.000305	0.1062	-0.17456	-0.002136	-0.001678
35.281	-0.005188	0.15137	-0.041809	0.005493	-0.11841	0.069733	-0.040894	0.011597	0.15091	-0.028992	-0.053101	0.000763	0.023804	-0.11643	-0.024567	0.014038	-0.018463	-0.38391	0.31067	-0.14145	-0.14404	0.048828	-0.26657	-0.10757	0.007172	0.010529	0.44998	-0.00351	0.26093	-0.30304	-0.00351	0.002594
35.282	0.00473	0.13001	0.003662	0.010681	-0.16953	-0.036011	-0.054474	0.004272	0.15228	-0.026398	0.14038	0.001221	0.021515	-0.13687	0.016022	0.018158	-0.000305	-0.38727	0.088196	-0.11093	-0.094299	0.003204	-0.31128	-0.22583	-0.068054	0.009613	-0.3952	0.000153	0.23758	-0.44174	-0.00061	0.002441
35.283	0.019836	0.12283	-0.034027	0.006866	-0.031891	-0.11032	-0.064545	0.002136	0.1387	-0.031128	0.13626	-0.006866	0.015717	-0.1152	0.056152	0.006409	0.010071	-0.33691	-0.12573	0.046387	-0.015411	-0.045929	-0.079041	-0.14633	-0.049438	0.015869	-1.0544	-0.001221	0.010834	-0.48767	-0.003357	0.014191
35.284	0.031738	0.086212	-0.01709	0.013123	0.15411	-0.059052	-0.033569	0.003357	0.112	-0.075378	0.079956	0.002136	0.036163	-0.072632	0.026245	0.007019	0.010376	-0.35614	-0.045929	0.072479	-0.032349	-0.036316	0.002441	0.032806	-0.099487	0.014343	-0.22049	-0.001373	0.12283	-0.47989	-0.00473	0.007324
35.285	0.032501	0.06134	0.002899	0.007019	0.096893	0.003967	-0.03418	0.001373	0.067902	-0.088806	0.046692	-0.00412	0.038452	-0.085144	-0.00824	0.016022	-0.010223	-0.3688	0.18234	0.13992	-0.015869	0.022583	-0.16937	0.16678	-0.078583	0.014954	-0.062408	-0.000305	-0.11185	-0.40253	-0.003815	-0.000763
35.286	0.026703	0.025177	-0.023346	0.010986	0.052338	0.041656	-0.026398	0.00824	0.058289	-0.072632	0.05722	0.008698	0.028381	-0.087433	-0.003815	0.018311	-0.023804	-0.39963	-0.000458	0.22568	-0.055237	0.007477	-0.22629	0.21744	0.067444	0.004578	-0.28107	-0.007019	0.15152	-0.23193	-0.002747	0.000458
35.287	0.025635	0.028534	-0.029755	0.006409	0.055237	0.058136	-0.03006	0.005188	0.077209	-0.038757	0.018921	-0.00946	0.062714	-0.07431	-0.001678	0.014496	-0.010223	-0.35019	-0.15991	0.13565	-0.00946	-0.007172	-0.19791	0.22385	0.17456	-0.011749	0.096436	-0.005341	0.045776	0.044708	-0.002441	0.004578
35.288	0.012817	-0.020294	-0.017395	0.007477	0.070953	0.080414	-0.045624	0.002594	0.099182	-0.025482	0.003967	0.00824	0.078583	-0.04364	-0.002136	0.013428	-0.003662	-0.37262	-0.24353	0.00351	-0.016327	-0.044098	-0.078278	0.12436	0.085449	-0.007629	-0.032043	-0.008392	0.10925	0.3096	-0.002594	-0.001526
35.289	0.015717	-0.005493	-0.050964	0.013123	0.072784	0.10117	-0.027771	0.003967	0.10239	-0.00061	0.011139	-0.005493	-0.02182	-0.027618	0.016785	0.026093	0.010681	-0.39215	-0.52033	-0.076447	-0.021973	-0.04837	-0.054321	0.055847	0.03067	-0.00885	-0.053101	-0.003967	0.17593	0.46631	-0.001221	0.006714
35.29	0.005188	0.022888	-0.1001	-0.005798	0.043488	0.11169	-0.026093	0.006561	0.097198	-0.001678	0.012817	0.00473	-0.056763	-0.041962	0.011597	0.026093	0.003357	-0.34485	0.14404	-0.031281	-0.065308	-0.053406	-0.070953	0.063477	0.007172	-0.01709	0.044861	-0.003052	-0.15396	0.4776	-0.007782	0.003662
35.291	0.005798	-0.005646	-0.13962	0.007629	-0.022888	0.05249	-0.036163	-0.000458	0.094452	-0.0177	0.02182	0	-0.042725	-0.025482	-0.032349	0.019684	-0.005798	-0.39352	0.71167	-0.000458	-0.05188	-0.030518	-0.080719	-0.010223	-0.023346	-0.013428	0.19302	-0.005646	-0.4628	0.39154	-0.003357	0.008392
35.292	0.011139	-0.012665	-0.16754	-0.000916	-0.019226	0.020447	-0.0383	0.00473	0.074615	-0.028229	0.018158	0.00351	0.00885	-0.013885	-0.043488	0.014343	0.002136	-0.47653	0.20859	0.007629	-0.045319	0.013885	-0.11169	-0.002594	-0.095215	-0.013885	0.13992	-0.002136	-0.20554	0.30182	-0.00351	0
35.293	-0.001831	0.020294	-0.10117	0.002136	-0.060425	0.027161	-0.046844	0.003967	0.064545	-0.055237	0.014648	-0.006866	-0.011749	-0.042114	-0.03479	0.010834	0.004578	-0.43442	0.62973	-0.032349	0.05722	0.042877	-0.13534	0.023041	-0.1001	-0.016479	0.010071	-0.001373	0.12436	0.26154	-0.002747	0.000916
35.294	0.003967	0.000305	-0.06958	-0.020752	-0.093231	0.036926	-0.055542	0.000916	0.057831	-0.04425	0.012512	-0.000763	-0.021667	-0.10956	-0.019226	0.007019	0.005493	-0.46249	0.53085	-0.085907	0.034943	0.029297	-0.21011	0.012512	-0.031128	-0.01297	0.11749	-0.001678	0.19898	0.21362	-0.001526	0.000763
35.295	-0.001373	-0.000763	-0.10635	0.006104	-0.029602	0.031281	-0.041962	0.009003	0.035706	-0.046692	-0.006866	0.011139	0.009155	-0.215	-0.002136	0.008698	0.005188	-0.47653	0.20737	-0.058899	-0.049286	-0.015259	-0.24307	-0.025787	0.008087	-0.009766	0.2301	-0.001526	0.10773	0.092468	-0.001984	-0.001526
35.296	0.001526	-0.05249	-0.15991	0.012512	0.024109	0.033112	-0.066071	0.000763	0.032806	-0.039978	0.04776	0.011597	-0.002441	-0.23926	0.009003	0.004425	0.021057	-0.52414	0.31433	-0.040283	0.005188	-0.11963	-0.18433	-0.032501	-0.033417	-0.013733	0.38406	-0.001526	-0.016022	0.036469	-0.00473	0.002594
35.297	0.012665	-0.021667	-0.042725	-0.000305	0.049286	0.009003	-0.067902	0.004272	0.026855	-0.035095	-0.002441	0.008392	-0.013428	-0.22446	0.004425	0.012817	0.00885	-0.43167	0.94147	0.018463	0.016785	-0.12161	-0.14084	0.00885	-0.05661	-0.016785	0.29511	-0.00412	0.020142	-0.076294	-0.006409	0.000153
35.298	0.009918	0.005188	0.084839	0.017853	0.039673	0.019073	-0.085907	0.003357	0.032806	-0.03952	0.011749	0.004883	-0.026093	-0.23285	-0.00351	0.006561	0.015259	-0.41702	0.9227	0.027161	-0.027008	-0.067749	-0.16205	-0.023956	-0.071869	-0.007629	0.33524	-0.002747	0.059052	-0.11032	-0.00412	0.006714
35.299	0.011292	-0.049286	0.15884	0.012817	-0.01297	0.079193	-0.068054	0.004883	0.038452	-0.04303	0.018005	0.011902	-0.036011	-0.15564	0.003815	0.017242	0.013123	-0.45639	0.44495	0.004578	-0.17639	0.06424	-0.19486	0.002289	-0.075684	0.006714	0.039368	-0.002136	-0.019379	-0.17136	-0.006561	0.006866
